<svg width="10" height="6" viewBox="0 0 10 6" fill="none" xmlns="http://www.w3.org/2000/svg">
<path fill-rule="evenodd" clip-rule="evenodd" d="M0.234499 0.11017C0.269333 0.0752477 0.310715 0.0475405 0.356274 0.0286356C0.401833 0.00973078 0.450673 0 0.499999 0C0.549324 0 0.598165 0.00973078 0.643724 0.0286356C0.689283 0.0475405 0.730665 0.0752477 0.765499 0.11017L5 4.34542L9.2345 0.11017C9.26936 0.0753042 9.31075 0.0476469 9.35631 0.0287776C9.40186 0.00990828 9.45069 0.000196338 9.5 0.000196338C9.5493 0.000196338 9.59813 0.00990828 9.64368 0.0287776C9.68924 0.0476469 9.73063 0.0753042 9.7655 0.11017C9.80036 0.145036 9.82802 0.186428 9.84689 0.231982C9.86576 0.277537 9.87547 0.326362 9.87547 0.37567C9.87547 0.424978 9.86576 0.473803 9.84689 0.519358C9.82802 0.564912 9.80036 0.606304 9.7655 0.64117L5.2655 5.14117C5.23066 5.17609 5.18928 5.2038 5.14372 5.2227C5.09816 5.24161 5.04932 5.25134 5 5.25134C4.95067 5.25134 4.90183 5.24161 4.85627 5.2227C4.81071 5.2038 4.76933 5.17609 4.7345 5.14117L0.234499 0.64117C0.199577 0.606336 0.171869 0.564954 0.152965 0.519395C0.13406 0.473837 0.124329 0.424996 0.124329 0.37567C0.124329 0.326345 0.13406 0.277504 0.152965 0.231945C0.171869 0.186386 0.199577 0.145004 0.234499 0.11017Z" fill="#4A9292"/>
</svg>
